<svg width="29" height="47" viewbox="0 0 30 48" fill="none" xmlns="http://www.w3.org/2000/svg">
<path d="M6.00002 47.1406C5.84434 47.1414 5.68937 47.1195 5.54002 47.0756C5.33172 47.0143 5.13762 46.9124 4.96891 46.7757C4.80019 46.6391 4.66021 46.4703 4.55702 46.2793C4.45383 46.0883 4.38948 45.8787 4.36768 45.6627C4.34589 45.4466 4.36707 45.2284 4.43002 45.0206L8.96502 29.1406H2.16002C1.95756 29.1478 1.75569 29.1148 1.56603 29.0436C1.37638 28.9723 1.20271 28.8643 1.05502 28.7256C0.730631 28.4404 0.532256 28.0385 0.503215 27.6076C0.474174 27.1766 0.616825 26.7517 0.900019 26.4256L22.09 0.735615C22.2895 0.494831 22.5536 0.31607 22.8512 0.220397C23.1489 0.124724 23.4676 0.116125 23.77 0.195615C23.978 0.245143 24.1738 0.336234 24.3457 0.463406C24.5175 0.590578 24.6619 0.751203 24.77 0.935615C24.9933 1.30627 25.0616 1.74998 24.96 2.17062L20.92 20.0756H27.86C28.1738 20.0774 28.4804 20.1689 28.7439 20.3393C29.0073 20.5096 29.2166 20.7518 29.3469 21.0372C29.4773 21.3226 29.5233 21.6393 29.4795 21.95C29.4358 22.2606 29.3041 22.5523 29.1 22.7906V22.8156L7.23002 46.5906C7.07647 46.7652 6.88715 46.9047 6.67491 46.9996C6.46268 47.0945 6.2325 47.1426 6.00002 47.1406ZM10.295 27.1406C10.4497 27.1408 10.6022 27.1769 10.7406 27.2461C10.879 27.3152 10.9994 27.4155 11.0924 27.5391C11.1855 27.6627 11.2486 27.8062 11.2768 27.9582C11.305 28.1103 11.2976 28.2669 11.255 28.4156L6.76502 44.1406L27.045 22.0756H19.67C19.518 22.0794 19.367 22.0483 19.2288 21.985C19.0905 21.9216 18.9685 21.8275 18.8721 21.7098C18.7756 21.5922 18.7073 21.4541 18.6723 21.3061C18.6373 21.1581 18.6365 21.004 18.67 20.8556L22.67 3.15562L2.90002 27.1406H10.295Z" fill="black"/>
</svg>
