<svg width="19" height="26" viewBox="0 0 19 26" fill="none" xmlns="http://www.w3.org/2000/svg">
<path d="M18.05 12.6408H1.8677L7.79 4.85576C7.82568 4.80881 7.85398 4.75307 7.87329 4.69173C7.8926 4.63039 7.90254 4.56465 7.90254 4.49826C7.90254 4.43186 7.8926 4.36612 7.87329 4.30478C7.85398 4.24344 7.82568 4.1877 7.79 4.14076C7.75432 4.09381 7.71196 4.05657 7.66534 4.03116C7.61873 4.00575 7.56876 3.99268 7.5183 3.99268C7.46784 3.99268 7.41788 4.00575 7.37126 4.03116C7.32464 4.05657 7.28228 4.09381 7.2466 4.14076L0.6821 12.7858C0.664125 12.8092 0.648193 12.8352 0.6346 12.8633C0.628209 12.8752 0.622493 12.8877 0.6175 12.9008L0.5985 12.9508L0.5871 13.0008C0.586008 13.0149 0.586008 13.0291 0.5871 13.0433C0.577374 13.1076 0.577374 13.1739 0.5871 13.2383C0.586008 13.2524 0.586008 13.2666 0.5871 13.2808L0.5985 13.3308L0.6175 13.3808C0.622493 13.3938 0.628209 13.4063 0.6346 13.4183C0.648193 13.4463 0.664125 13.4723 0.6821 13.4958L7.2466 22.1408C7.28199 22.1884 7.32425 22.2262 7.37091 22.2521C7.41757 22.2779 7.46768 22.2912 7.5183 22.2912C7.56892 22.2912 7.61903 22.2779 7.66569 22.2521C7.71235 22.2262 7.75461 22.1884 7.79 22.1408C7.82533 22.0943 7.85336 22.0392 7.87248 21.9785C7.89161 21.9178 7.90145 21.8527 7.90145 21.787C7.90145 21.7213 7.89161 21.6562 7.87248 21.5955C7.85336 21.5348 7.82533 21.4797 7.79 21.4333L1.8677 13.6408H18.05C18.1508 13.6408 18.2474 13.5881 18.3187 13.4943C18.39 13.4005 18.43 13.2734 18.43 13.1408C18.43 13.0081 18.39 12.881 18.3187 12.7872C18.2474 12.6934 18.1508 12.6408 18.05 12.6408Z" fill="black"/>
</svg>
