<svg width="19" height="26" viewBox="0 0 19 26" fill="none" xmlns="http://www.w3.org/2000/svg">
<path d="M0.949972 13.6405L17.1323 13.6405L11.21 21.4255C11.1743 21.4724 11.146 21.5282 11.1267 21.5895C11.1074 21.6509 11.0974 21.7166 11.0974 21.783C11.0974 21.8494 11.1074 21.9151 11.1267 21.9765C11.146 22.0378 11.1743 22.0935 11.21 22.1405C11.2457 22.1874 11.288 22.2247 11.3346 22.2501C11.3812 22.2755 11.4312 22.2886 11.4817 22.2886C11.5321 22.2886 11.5821 22.2755 11.6287 22.2501C11.6753 22.2247 11.7177 22.1874 11.7534 22.1405L18.3179 13.4955C18.3358 13.4721 18.3518 13.4461 18.3654 13.418C18.3718 13.4061 18.3775 13.3935 18.3825 13.3805L18.4015 13.3305L18.4129 13.2805C18.414 13.2664 18.414 13.2521 18.4129 13.238C18.4226 13.1736 18.4226 13.1074 18.4129 13.043C18.414 13.0289 18.414 13.0146 18.4129 13.0005L18.4015 12.9505L18.3825 12.9005C18.3775 12.8875 18.3718 12.8749 18.3654 12.863C18.3518 12.8349 18.3358 12.8089 18.3179 12.7855L11.7534 4.14049C11.718 4.09287 11.6757 4.05503 11.6291 4.0292C11.5824 4.00336 11.5323 3.99006 11.4817 3.99006C11.4311 3.99006 11.3809 4.00336 11.3343 4.0292C11.2876 4.05503 11.2454 4.09287 11.21 4.14049C11.1746 4.18693 11.1466 4.24207 11.1275 4.30277C11.1084 4.36347 11.0985 4.42854 11.0985 4.49424C11.0985 4.55995 11.1084 4.62501 11.1275 4.68571C11.1466 4.74641 11.1746 4.80156 11.21 4.84799L17.1323 12.6405L0.949972 12.6405C0.84919 12.6405 0.752535 12.6932 0.681271 12.7869C0.610006 12.8807 0.569971 13.0079 0.569971 13.1405C0.569971 13.2731 0.610006 13.4003 0.681271 13.494C0.752535 13.5878 0.84919 13.6405 0.949972 13.6405Z" fill="black"/>
</svg>
