<svg width="38" height="25" viewBox="0 0 38 25" fill="none" xmlns="http://www.w3.org/2000/svg">
<g clip-path="url(#clip0_1_2191)">
<path fill-rule="evenodd" clip-rule="evenodd" d="M35 0.90625H3C1.3 0.90625 0 2.20625 0 3.90625V21.9062C0 23.6063 1.4 24.9062 3 24.9062H35C36.7 24.9062 38 23.6063 38 21.9062V3.90625C38 2.20625 36.6 0.90625 35 0.90625Z" fill="#FFB3C7"/>
<path fill-rule="evenodd" clip-rule="evenodd" d="M35 1.90625C36.1 1.90625 37 2.80625 37 3.90625V21.9062C37 23.0063 36.1 23.9062 35 23.9062H3C1.9 23.9062 1 23.0063 1 21.9062V3.90625C1 2.80625 1.9 1.90625 3 1.90625H35Z" fill="#FFB3C7"/>
<path d="M34.117 14.0903C33.63 14.0903 33.235 14.4903 33.235 14.9823C33.235 15.4753 33.63 15.8752 34.117 15.8752C34.605 15.8752 35 15.4753 35 14.9823C35.0011 14.7469 34.9087 14.5208 34.7431 14.3535C34.5775 14.1863 34.3523 14.0916 34.117 14.0903ZM31.214 13.4003C31.214 12.7243 30.644 12.1772 29.94 12.1772C29.236 12.1772 28.666 12.7243 28.666 13.3993C28.666 14.0743 29.236 14.6222 29.94 14.6222C30.644 14.6222 31.214 14.0743 31.214 13.3993V13.4003ZM31.219 11.0243H32.625V15.7743H31.219V15.4712C30.8095 15.7548 30.3231 15.9066 29.825 15.9062C28.456 15.9062 27.347 14.7843 27.347 13.3993C27.347 12.0153 28.457 10.8933 29.825 10.8933C30.342 10.8933 30.821 11.0532 31.219 11.3282V11.0243ZM19.966 11.6433V11.0243H18.526V15.7743H19.969V13.5573C19.969 12.8082 20.771 12.4073 21.328 12.4073H21.344V11.0253C20.774 11.0253 20.248 11.2723 19.966 11.6433ZM16.38 13.3993C16.38 12.7243 15.81 12.1772 15.106 12.1772C14.403 12.1772 13.832 12.7243 13.832 13.3993C13.832 14.0743 14.402 14.6222 15.106 14.6222C15.81 14.6222 16.38 14.0743 16.38 13.3993ZM16.385 11.0243H17.791V15.7743H16.385V15.4712C15.9752 15.755 15.4885 15.9068 14.99 15.9062C13.622 15.9062 12.512 14.7843 12.512 13.3993C12.512 12.0153 13.622 10.8933 14.99 10.8933C15.507 10.8933 15.987 11.0532 16.384 11.3282V11.0243H16.385ZM24.848 10.8962C24.287 10.8962 23.755 11.0732 23.4 11.5592V11.0243H22V15.7743H23.417V13.2782C23.417 12.5562 23.896 12.2022 24.472 12.2022C25.09 12.2022 25.445 12.5763 25.445 13.2683V15.7753H26.85V12.7542C26.85 11.6482 25.98 10.8962 24.848 10.8962ZM10.465 15.7762H11.937V8.90625H10.465V15.7743V15.7762ZM4 15.7762H5.558V8.90625H4V15.7762ZM9.45 8.90625C9.45395 9.62913 9.31529 10.3457 9.04194 11.0149C8.76859 11.6841 8.36592 12.2929 7.857 12.8062L10.011 15.7762H8.086L5.745 12.5483L6.349 12.0903C6.8417 11.719 7.24085 11.2378 7.51465 10.685C7.78845 10.1322 7.92931 9.52313 7.926 8.90625H9.45Z" fill="#0A0B09"/>
</g>
<defs>
<clipPath id="clip0_1_2191">
<rect width="38" height="24" fill="white" transform="translate(0 0.90625)"/>
</clipPath>
</defs>
</svg>
