<svg width="38" height="25" viewBox="0 0 38 25" fill="none" xmlns="http://www.w3.org/2000/svg">
<g clip-path="url(#clip0_1_2179)">
<path opacity="0.07" d="M35 0.90625H3C1.3 0.90625 0 2.20625 0 3.90625V21.9062C0 23.6063 1.4 24.9062 3 24.9062H35C36.7 24.9062 38 23.6063 38 21.9062V3.90625C38 2.20625 36.6 0.90625 35 0.90625Z" fill="black"/>
<path d="M35 1.90625C36.1 1.90625 37 2.80625 37 3.90625V21.9062C37 23.0063 36.1 23.9062 35 23.9062H3C1.9 23.9062 1 23.0063 1 21.9062V3.90625C1 2.80625 1.9 1.90625 3 1.90625H35Z" fill="white"/>
<path d="M12 12.9062V16.6062C12 16.9062 11.8 16.9062 11.5 16.8062C9.59998 16.0062 8.49998 13.5062 9.19998 11.4062C9.59998 10.3063 10.4 9.40625 11.5 9.00625C11.9 8.80625 12 8.90625 12 9.20625V12.9062ZM14 12.9062V9.20625C14 8.90625 14 8.90625 14.3 9.00625C16.4 9.80625 17.5 12.3063 16.7 14.4062C16.3 15.5063 15.5 16.4062 14.4 16.8062C14 17.0062 14 16.9062 14 16.6062V12.9062ZM21.2 5.90625H13C16.8 5.90625 19.8 9.00625 19.8 12.9062C19.8 16.8062 16.8 19.9062 13 19.9062H21.2C25 19.9062 28 16.8062 28 12.9062C28 9.00625 25 5.90625 21.2 5.90625Z" fill="#3086C8"/>
</g>
<defs>
<clipPath id="clip0_1_2179">
<rect width="38" height="24" fill="white" transform="translate(0 0.90625)"/>
</clipPath>
</defs>
</svg>
