<svg width="38" height="25" viewBox="0 0 38 25" fill="none" xmlns="http://www.w3.org/2000/svg">
<g clip-path="url(#clip0_1_2196)">
<path opacity="0.07" d="M35 0.90625H3C1.3 0.90625 0 2.20625 0 3.90625V21.9062C0 23.6063 1.4 24.9062 3 24.9062H35C36.7 24.9062 38 23.6063 38 21.9062V3.90625C38 2.20625 36.6 0.90625 35 0.90625Z" fill="black"/>
<path d="M35 1.90625C36.1 1.90625 37 2.80625 37 3.90625V21.9062C37 23.0063 36.1 23.9062 35 23.9062H3C1.9 23.9062 1 23.0063 1 21.9062V3.90625C1 2.80625 1.9 1.90625 3 1.90625H35Z" fill="white"/>
<path d="M15 19.9062C18.866 19.9062 22 16.7722 22 12.9062C22 9.04026 18.866 5.90625 15 5.90625C11.134 5.90625 8 9.04026 8 12.9062C8 16.7722 11.134 19.9062 15 19.9062Z" fill="#EB001B"/>
<path d="M23 19.9062C26.866 19.9062 30 16.7722 30 12.9062C30 9.04026 26.866 5.90625 23 5.90625C19.134 5.90625 16 9.04026 16 12.9062C16 16.7722 19.134 19.9062 23 19.9062Z" fill="#F79E1B"/>
<path d="M22 12.9061C22 10.5061 20.8 8.40605 19 7.20605C17.2 8.50605 16 10.6061 16 12.9061C16 15.2061 17.2 17.4061 19 18.6061C20.8 17.4061 22 15.3061 22 12.9061Z" fill="#FF5F00"/>
</g>
<defs>
<clipPath id="clip0_1_2196">
<rect width="38" height="24" fill="white" transform="translate(0 0.90625)"/>
</clipPath>
</defs>
</svg>
