<svg width="38" height="25" viewBox="0 0 38 25" fill="none" xmlns="http://www.w3.org/2000/svg">
<g clip-path="url(#clip0_1_2183)">
<path opacity="0.07" d="M35 0.90625H3C1.3 0.90625 0 2.20625 0 3.90625V21.9062C0 23.6063 1.4 24.9062 3 24.9062H35C36.7 24.9062 38 23.6063 38 21.9062V3.90625C38 2.20625 36.6 0.90625 35 0.90625Z" fill="black"/>
<path d="M35 1.90625C36.1 1.90625 37 2.80625 37 3.90625V21.9062C37 23.0063 36.1 23.9062 35 23.9062H3C1.9 23.9062 1 23.0063 1 21.9062V3.90625C1 2.80625 1.9 1.90625 3 1.90625H35Z" fill="white"/>
<path d="M18.093 12.8825V16.0825H17.075V8.18248H19.766C20.0884 8.17702 20.4087 8.23535 20.7085 8.35411C21.0083 8.47286 21.2817 8.64971 21.513 8.87448C21.732 9.07887 21.9086 9.32443 22.0327 9.59712C22.1568 9.8698 22.2259 10.1643 22.2361 10.4637C22.2463 10.7631 22.1974 11.0616 22.0922 11.3421C21.987 11.6226 21.8275 11.8796 21.6229 12.0985L21.513 12.2145C21.043 12.6615 20.415 12.9045 19.766 12.8885L18.093 12.8825ZM18.093 9.15048V11.9385H19.791C20.168 11.9505 20.5319 11.8035 20.7959 11.5345C20.9848 11.3377 21.1116 11.0896 21.1606 10.8213C21.2096 10.553 21.1786 10.2762 21.0715 10.0253C20.9644 9.77445 20.7859 9.56061 20.5582 9.4104C20.3305 9.26019 20.0637 9.18023 19.791 9.18048L18.093 9.15048ZM24.577 10.4985C25.2269 10.4685 25.863 10.6865 26.3549 11.1115C26.7999 11.5415 27.0369 12.1415 27.0049 12.7605V16.0945H26.0359V15.3285H25.9869C25.8132 15.6158 25.5674 15.8528 25.274 16.0161C24.9806 16.1793 24.6497 16.2632 24.3139 16.2595C23.7658 16.2772 23.2314 16.0868 22.818 15.7265C22.6221 15.5667 22.4651 15.3645 22.3589 15.1351C22.2527 14.9057 22.2001 14.6552 22.205 14.4025C22.1934 14.1471 22.243 13.8926 22.3496 13.6602C22.4563 13.4279 22.6168 13.2243 22.818 13.0665C23.3114 12.7116 23.9086 12.5305 24.516 12.5515C25.033 12.5315 25.546 12.6445 26.006 12.8825V12.6745C26.0093 12.5025 25.9735 12.332 25.9013 12.1759C25.829 12.0198 25.7222 11.8822 25.589 11.7735C25.3213 11.5301 24.9706 11.3985 24.6089 11.4055C24.3463 11.403 24.0873 11.4675 23.8565 11.593C23.6257 11.7185 23.4307 11.9007 23.29 12.1225L22.395 11.5585C22.638 11.2103 22.9661 10.9301 23.348 10.7445C23.7299 10.559 24.153 10.4743 24.577 10.4985ZM23.29 14.4265C23.2875 14.556 23.317 14.6841 23.3758 14.7996C23.4346 14.915 23.5208 15.0142 23.627 15.0885C23.85 15.2645 24.127 15.3575 24.412 15.3515C24.841 15.3505 25.252 15.1815 25.558 14.8795C25.863 14.5935 26.0359 14.1945 26.0359 13.7765C25.651 13.5028 25.1832 13.3707 24.712 13.4025C24.346 13.3881 23.9851 13.4911 23.6819 13.6965C23.5619 13.7768 23.4634 13.8854 23.395 14.0126C23.3267 14.1399 23.2906 14.282 23.29 14.4265ZM32.576 10.6765L29.186 18.4665H28.138L29.419 15.7385L27.195 10.6765H28.298L29.91 14.5615L31.479 10.6765H32.576Z" fill="#5F6368"/>
<path d="M13.986 12.19C13.986 11.882 13.962 11.574 13.913 11.27H9.62305V13.017H12.074C12.0241 13.2947 11.9187 13.5594 11.7641 13.7953C11.6094 14.0312 11.4087 14.2335 11.174 14.39V15.524H12.638C13.0832 15.0933 13.4331 14.5741 13.6653 13.9999C13.8975 13.4256 14.0067 12.8091 13.986 12.19Z" fill="#4285F4"/>
<path d="M9.62903 16.6272C10.7353 16.6576 11.8117 16.2653 12.639 15.5302L11.173 14.3902C10.8208 14.616 10.4217 14.7586 10.006 14.807C9.59043 14.8554 9.16924 14.8084 8.77451 14.6696C8.37978 14.5307 8.02191 14.3037 7.72812 14.0058C7.43432 13.7078 7.21233 13.3468 7.07903 12.9502H5.57703V14.1202C5.95288 14.8732 6.53107 15.5067 7.24678 15.9495C7.96249 16.3923 8.78741 16.627 9.62903 16.6272Z" fill="#34A853"/>
<path d="M7.07905 12.9563C6.88885 12.3936 6.88885 11.784 7.07905 11.2213V10.0513H5.57705C5.25684 10.6827 5.08997 11.3808 5.08997 12.0888C5.08997 12.7968 5.25684 13.4948 5.57705 14.1263L7.07905 12.9563Z" fill="#FBBC04"/>
<path d="M9.62903 9.34644C10.276 9.33462 10.9015 9.57905 11.369 10.0264L12.669 8.73344C11.8401 7.95545 10.7407 7.5311 9.60403 7.55044C8.76739 7.55463 7.94827 7.79044 7.23746 8.23172C6.52665 8.67299 5.95194 9.3025 5.57703 10.0504L7.07903 11.2214C7.25465 10.6815 7.59512 10.2102 8.05253 9.87391C8.50995 9.53757 9.0613 9.3531 9.62903 9.34644Z" fill="#EA4335"/>
</g>
<defs>
<clipPath id="clip0_1_2183">
<rect width="38" height="24" fill="white" transform="translate(0 0.90625)"/>
</clipPath>
</defs>
</svg>
