<svg width="38" height="25" viewBox="0 0 38 25" fill="none" xmlns="http://www.w3.org/2000/svg">
<g clip-path="url(#clip0_1_2174)">
<path opacity="0.07" d="M35 0.90625H3C1.3 0.90625 0 2.20625 0 3.90625V21.9062C0 23.6063 1.4 24.9062 3 24.9062H35C36.7 24.9062 38 23.6063 38 21.9062V3.90625C38 2.20625 36.6 0.90625 35 0.90625Z" fill="black"/>
<path d="M35 1.90625C36.1 1.90625 37 2.80625 37 3.90625V21.9062C37 23.0063 36.1 23.9062 35 23.9062H3C1.9 23.9062 1 23.0063 1 21.9062V3.90625C1 2.80625 1.9 1.90625 3 1.90625H35Z" fill="#006FCF"/>
<path d="M8.971 11.1742L9.745 13.0503H8.203L8.971 11.1742ZM25.046 11.2522H22.069V12.0793H24.998V13.3182H22.075V14.2402H25.052V14.9792L27.129 12.7343L25.052 10.3942L25.046 11.2522ZM10.983 8.91225H14.978L15.865 10.8472L16.687 8.90625H27.057L28.135 10.0962L29.25 8.90625H34.013L30.494 12.7583L33.977 16.5863H29.143L28.065 15.3962L26.94 16.5863H10.03L9.536 15.3962H8.406L7.911 16.5863H4L7.286 8.90625H10.716L10.983 8.91225ZM19.646 9.99025H17.407L15.907 13.5262L14.282 9.99025H12.06V14.8003L10 9.99025H8.007L5.625 15.5022H7.18L7.674 14.3123H10.27L10.764 15.5022H13.484V11.5673L15.235 15.5083H16.425L18.165 11.5793V15.5092H19.623L19.647 9.98925L19.646 9.99025ZM28.986 12.7583L31.517 9.99025H29.695L28.094 11.7163L26.546 9.99025H20.652V15.5083H26.462L28.076 13.7703L29.624 15.5083H31.499L28.987 12.7583H28.986Z" fill="white"/>
</g>
<defs>
<clipPath id="clip0_1_2174">
<rect width="38" height="24" fill="white" transform="translate(0 0.90625)"/>
</clipPath>
</defs>
</svg>
