<svg width="38" height="25" viewBox="0 0 38 25" fill="none" xmlns="http://www.w3.org/2000/svg">
<g clip-path="url(#clip0_1_2206)">
<path d="M35 0.90625H3C1.34315 0.90625 0 2.2494 0 3.90625V21.9062C0 23.5631 1.34315 24.9062 3 24.9062H35C36.6569 24.9062 38 23.5631 38 21.9062V3.90625C38 2.2494 36.6569 0.90625 35 0.90625Z" fill="black" fill-opacity="0.07"/>
<path fill-rule="evenodd" clip-rule="evenodd" d="M35 1.90625C36.1 1.90625 37 2.80625 37 3.90625V21.9062C37 23.0063 36.1 23.9062 35 23.9062H3C1.9 23.9062 1 23.0063 1 21.9062V3.90625C1 2.80625 1.9 1.90625 3 1.90625H35Z" fill="#3D95CE"/>
<path d="M24.675 9.26615C24.675 12.3302 22.118 16.3112 20.042 19.1062H15.302L13.4 7.47615L17.551 7.07415L18.556 15.3492C19.496 13.7832 20.655 11.3242 20.655 9.64715C20.655 8.72915 20.501 8.10415 20.261 7.58915L24.041 6.80615C24.478 7.54415 24.675 8.30515 24.675 9.26615Z" fill="white"/>
</g>
<defs>
<clipPath id="clip0_1_2206">
<rect width="38" height="24" fill="white" transform="translate(0 0.90625)"/>
</clipPath>
</defs>
</svg>
