<svg width="38" height="25" viewBox="0 0 38 25" fill="none" xmlns="http://www.w3.org/2000/svg">
<g clip-path="url(#clip0_1_2211)">
<path opacity="0.07" d="M35 0.90625H3C1.3 0.90625 0 2.20625 0 3.90625V21.9062C0 23.6063 1.4 24.9062 3 24.9062H35C36.7 24.9062 38 23.6063 38 21.9062V3.90625C38 2.20625 36.6 0.90625 35 0.90625Z" fill="black"/>
<path d="M35 1.90625C36.1 1.90625 37 2.80625 37 3.90625V21.9062C37 23.0063 36.1 23.9062 35 23.9062H3C1.9 23.9062 1 23.0063 1 21.9062V3.90625C1 2.80625 1.9 1.90625 3 1.90625H35Z" fill="white"/>
<path d="M28.3 11.0063H28C27.6 12.0063 27.3 12.5063 27 14.0063H28.9C28.6 12.5063 28.6 11.8063 28.3 11.0063ZM31.2 16.9062H29.5C29.4 16.9062 29.4 16.9062 29.3 16.8062L29.1 15.9062L29 15.7063H26.6C26.5 15.7063 26.4 15.7063 26.4 15.9062L26.1 16.8062C26.1 16.9062 26 16.9062 26 16.9062H23.9L24.1 16.4062L27 9.60625C27 9.10625 27.3 8.90625 27.8 8.90625H29.3C29.4 8.90625 29.5 8.90625 29.5 9.10625L30.9 15.6062C31 16.0062 31.1 16.3063 31.1 16.7063C31.2 16.8063 31.2 16.8063 31.2 16.9062ZM17.8 16.6062L18.2 14.8062C18.3 14.8062 18.4 14.9062 18.4 14.9062C19.1 15.2063 19.8 15.4062 20.5 15.3062C20.7 15.3062 21 15.2062 21.2 15.1062C21.7 14.9062 21.7 14.4063 21.3 14.0063C21.1 13.8063 20.8 13.7063 20.5 13.5063C20.1 13.3063 19.7 13.1062 19.4 12.8062C18.2 11.8062 18.6 10.4063 19.3 9.70625C19.9 9.30625 20.2 8.90625 21 8.90625C22.2 8.90625 23.5 8.90625 24.1 9.10625H24.2C24.1 9.70625 24 10.2062 23.8 10.8062C23.3 10.6062 22.8 10.4062 22.3 10.4062C22 10.4062 21.7 10.4063 21.4 10.5063C21.2 10.5063 21.1 10.6063 21 10.7063C20.8 10.9063 20.8 11.2062 21 11.4062L21.5 11.8062C21.9 12.0062 22.3 12.2062 22.6 12.4062C23.1 12.7062 23.6 13.2062 23.7 13.8062C23.9 14.7062 23.6 15.5062 22.8 16.1062C22.3 16.5062 22.1 16.7063 21.4 16.7063C20 16.7063 18.9 16.8063 18 16.5063C17.9 16.7063 17.9 16.7062 17.8 16.6062ZM14.3 16.9062C14.4 16.2063 14.4 16.2063 14.5 15.9062C15 13.7063 15.5 11.4063 15.9 9.20625C16 9.00625 16 8.90625 16.2 8.90625H18C17.8 10.1063 17.6 11.0062 17.3 12.1062C17 13.6062 16.7 15.1062 16.3 16.6062C16.3 16.8062 16.2 16.8062 16 16.8062L14.3 16.9062ZM5 9.10625C5 9.00625 5.2 8.90625 5.3 8.90625H8.7C9.2 8.90625 9.6 9.20625 9.7 9.70625L10.6 14.1062C10.6 14.2062 10.6 14.2062 10.7 14.3062C10.7 14.2062 10.8 14.2063 10.8 14.2063L12.9 9.10625C12.8 9.00625 12.9 8.90625 13 8.90625H15.1C15.1 9.00625 15.1 9.00625 15 9.10625L11.9 16.4062C11.8 16.6062 11.8 16.7062 11.7 16.8062C11.6 16.9062 11.4 16.8062 11.2 16.8062H9.7C9.6 16.8062 9.5 16.8062 9.5 16.6062L7.9 10.4062C7.7 10.2062 7.4 9.90625 7 9.80625C6.4 9.50625 5.3 9.30625 5.1 9.30625L5 9.10625Z" fill="#142688"/>
</g>
<defs>
<clipPath id="clip0_1_2211">
<rect width="38" height="24" fill="white" transform="translate(0 0.90625)"/>
</clipPath>
</defs>
</svg>
