<svg width="38" height="25" viewBox="0 0 38 25" fill="none" xmlns="http://www.w3.org/2000/svg">
<g clip-path="url(#clip0_1_2202)">
<path opacity="0.07" d="M35 0.90625H3C1.3 0.90625 0 2.20625 0 3.90625V21.9062C0 23.6063 1.4 24.9062 3 24.9062H35C36.7 24.9062 38 23.6063 38 21.9062V3.90625C38 2.20625 36.6 0.90625 35 0.90625Z" fill="black"/>
<path d="M35 1.90625C36.1 1.90625 37 2.80625 37 3.90625V21.9062C37 23.0063 36.1 23.9062 35 23.9062H3C1.9 23.9062 1 23.0063 1 21.9062V3.90625C1 2.80625 1.9 1.90625 3 1.90625H35Z" fill="#5A31F4"/>
<path d="M21.382 10.6193C21.382 12.2873 20.205 13.4773 18.561 13.4773H17.012C16.9864 13.4777 16.9615 13.4854 16.9402 13.4996C16.9189 13.5138 16.9022 13.5338 16.892 13.5573C16.8854 13.5728 16.882 13.5895 16.882 13.6063V15.7983C16.882 15.8153 16.8786 15.8322 16.8721 15.8479C16.8655 15.8636 16.8559 15.8779 16.8438 15.8899C16.8318 15.9019 16.8174 15.9113 16.8017 15.9178C16.7859 15.9242 16.769 15.9274 16.752 15.9273H15.668C15.6335 15.9273 15.6004 15.9136 15.5761 15.8892C15.5517 15.8648 15.538 15.8318 15.538 15.7973V7.8923C15.5376 7.86655 15.545 7.84128 15.5593 7.81984C15.5736 7.79841 15.5941 7.78183 15.618 7.7723C15.6338 7.76568 15.6508 7.76228 15.668 7.7623H18.568C20.205 7.7623 21.382 8.9523 21.382 10.6203V10.6193ZM20.03 10.6193C20.03 9.6613 19.372 8.9613 18.48 8.9613H17.012C16.9949 8.9613 16.978 8.96466 16.9622 8.9712C16.9465 8.97773 16.9321 8.98731 16.9201 8.99938C16.908 9.01145 16.8984 9.02578 16.8919 9.04155C16.8853 9.05733 16.882 9.07423 16.882 9.0913V12.1413C16.8818 12.1584 16.8851 12.1754 16.8916 12.1912C16.8981 12.207 16.9078 12.2213 16.92 12.2333C16.932 12.2454 16.9464 12.255 16.9622 12.2615C16.978 12.2681 16.9949 12.2714 17.012 12.2713H18.48C19.372 12.2763 20.03 11.5763 20.03 10.6193ZM21.704 14.4103C21.6926 14.1541 21.7458 13.8992 21.8589 13.669C21.972 13.4388 22.1412 13.2408 22.351 13.0933C22.774 12.7773 23.435 12.6133 24.406 12.5793L25.439 12.5433V12.2403C25.439 11.6333 25.029 11.3773 24.371 11.3773C23.713 11.3773 23.296 11.6083 23.201 11.9873C23.1929 12.0139 23.1763 12.0372 23.1537 12.0534C23.1311 12.0697 23.1038 12.0781 23.076 12.0773H22.054C22.0259 12.0777 21.9984 12.0689 21.9756 12.0523C21.9529 12.0357 21.9362 12.0122 21.928 11.9853C21.9226 11.9675 21.9212 11.9487 21.924 11.9303C22.076 11.0323 22.828 10.3503 24.418 10.3503C26.11 10.3503 26.721 11.1333 26.721 12.6263V15.7983C26.7209 15.8155 26.7173 15.8324 26.7106 15.8482C26.7039 15.864 26.6941 15.8783 26.6818 15.8903C26.6696 15.9023 26.6551 15.9117 26.6391 15.9181C26.6232 15.9244 26.6061 15.9276 26.589 15.9273H25.559C25.5245 15.9273 25.4914 15.9136 25.4671 15.8892C25.4427 15.8648 25.429 15.8318 25.429 15.7973V15.5613C25.4293 15.5417 25.4236 15.5225 25.4127 15.5062C25.4018 15.49 25.3862 15.4774 25.368 15.4703C25.3499 15.4632 25.3302 15.4615 25.3112 15.4654C25.2922 15.4693 25.2748 15.4787 25.261 15.4923C24.951 15.8263 24.453 16.0673 23.654 16.0673C22.479 16.0673 21.704 15.4603 21.704 14.4103ZM25.439 13.7233V13.4773L24.1 13.5473C23.395 13.5833 22.985 13.8733 22.985 14.3633C22.985 14.8073 23.361 15.0533 24.019 15.0533C24.912 15.0533 25.439 14.5733 25.439 13.7233ZM27.755 18.3233V17.4043C27.7552 17.385 27.7598 17.3661 27.7682 17.3488C27.7767 17.3315 27.7889 17.3163 27.804 17.3043C27.8189 17.2922 27.8363 17.2835 27.855 17.2789C27.8737 17.2742 27.8931 17.2737 27.912 17.2773C28.07 17.3063 28.23 17.3213 28.391 17.3213C28.6667 17.3364 28.9396 17.2582 29.1654 17.0993C29.3913 16.9403 29.5571 16.71 29.636 16.4453L29.703 16.2343C29.713 16.2058 29.713 16.1748 29.703 16.1463L27.558 10.6753C27.5455 10.6453 27.5448 10.6117 27.5559 10.5811C27.567 10.5506 27.5892 10.5253 27.618 10.5103C27.6371 10.5002 27.6584 10.4951 27.68 10.4953H28.72C28.7467 10.4954 28.7727 10.5035 28.7947 10.5187C28.8166 10.5339 28.8335 10.5554 28.843 10.5803L30.299 14.4393C30.308 14.4652 30.3249 14.4876 30.3473 14.5034C30.3697 14.5192 30.3966 14.5276 30.424 14.5273C30.4513 14.5273 30.478 14.5188 30.5004 14.5031C30.5228 14.4873 30.5397 14.465 30.549 14.4393L31.814 10.5913C31.8226 10.5648 31.8394 10.5417 31.8621 10.5255C31.8848 10.5093 31.9121 10.5008 31.94 10.5013H33.016C33.0483 10.5015 33.0794 10.5133 33.1036 10.5346C33.1279 10.556 33.1436 10.5853 33.148 10.6173C33.1504 10.6386 33.1477 10.6602 33.14 10.6803L30.845 16.7563C30.317 18.1693 29.412 18.5293 28.415 18.5293C28.2258 18.5345 28.0368 18.5123 27.854 18.4633C27.8233 18.4558 27.7964 18.4375 27.778 18.4118C27.7597 18.3861 27.7512 18.3547 27.754 18.3233H27.755ZM8.56998 7.3063C7.20548 7.2961 5.8884 7.80641 4.88698 8.7333C4.84437 8.77206 4.81777 8.82533 4.81241 8.88268C4.80704 8.94003 4.8233 8.99732 4.85798 9.0433L5.47598 9.8823C5.49601 9.91059 5.52202 9.93412 5.55216 9.95123C5.58231 9.96833 5.61585 9.97858 5.65041 9.98125C5.68497 9.98393 5.71969 9.97896 5.75211 9.96669C5.78452 9.95443 5.81384 9.93518 5.83798 9.9103C6.1979 9.5529 6.62535 9.27069 7.09542 9.08012C7.56549 8.88955 8.06879 8.79443 8.57598 8.8003C10.696 8.8003 11.803 10.3843 11.803 11.9503C11.803 13.6503 10.64 14.8483 8.96798 14.8713C7.67598 14.8713 6.70198 14.0213 6.70198 12.8973C6.70309 12.6131 6.76768 12.3327 6.89104 12.0766C7.0144 11.8206 7.19341 11.5953 7.41498 11.4173C7.46216 11.3786 7.49211 11.3228 7.49829 11.2621C7.50447 11.2014 7.48639 11.1407 7.44798 11.0933L6.79798 10.2783C6.77836 10.2532 6.75387 10.2324 6.72598 10.2171C6.6981 10.2017 6.6674 10.1922 6.63573 10.189C6.60406 10.1858 6.57208 10.1891 6.54171 10.1986C6.51133 10.2081 6.48319 10.2236 6.45898 10.2443C6.06088 10.5636 5.73906 10.9678 5.51698 11.4273C5.2957 11.8858 5.18051 12.3882 5.17998 12.8973C5.17998 14.8323 6.83498 16.3493 8.95498 16.3613H8.98498C11.502 16.3293 13.322 14.4773 13.322 11.9463C13.322 9.6993 11.655 7.3063 8.56998 7.3063Z" fill="white"/>
</g>
<defs>
<clipPath id="clip0_1_2202">
<rect width="38" height="24" fill="white" transform="translate(0 0.90625)"/>
</clipPath>
</defs>
</svg>
