<?xml version="1.0" encoding="utf-8"?><svg viewBox="0 0 502.66 502.66" xmlns="http://www.w3.org/2000/svg" xmlns:xlink="http://www.w3.org/1999/xlink"><style>:root>svg{display:none}:root>svg:target{display:block}</style><svg viewBox="0 0 502.664 502.664" id="icon" xmlns="http://www.w3.org/2000/svg"><path d="M153.821 358.226L0 274.337v-46.463l153.821-83.414v54.574L46.636 250.523l107.185 53.431v54.272zm26.273 29.358L282.103 115.08h32.227L212.084 387.584h-31.99zm168.749-29.358v-54.272l107.164-52.999-107.164-52.59v-53.927l153.821 83.522v46.183l-153.821 84.083z"/></svg><svg viewBox="0 0 29 47" id="lightning" xmlns="http://www.w3.org/2000/svg"><path d="M6 47.14c-.156.001-.31-.02-.46-.064a1.645 1.645 0 01-1.11-2.055l4.535-15.88H2.16a1.535 1.535 0 01-1.105-.415 1.635 1.635 0 01-.155-2.3L22.09.736a1.64 1.64 0 011.68-.54 1.585 1.585 0 011 .74c.223.37.292.814.19 1.235l-4.04 17.905h6.94a1.645 1.645 0 011.24 2.715v.025L7.23 46.59a1.62 1.62 0 01-1.23.55zm4.295-20a1 1 0 01.96 1.276L6.765 44.14l20.28-22.065H19.67a1 1 0 01-1-1.22l4-17.7L2.9 27.14h7.395z"/></svg></svg>